<svg height="100" viewBox="0 0 60 60" width="100" xmlns="http://www.w3.org/2000/svg"><g id="Page-1" fill="none" fill-rule="evenodd"><g id="034---Hot-Dog-and-Soda" fill-rule="nonzero"><path id="Shape" d="m25.84 54.89c-.3375288.7517586-.8084678 1.4361447-1.39 2.02-1.3021356 1.3235732-3.0767717 2.0755965-4.9334295 2.0905998s-3.6432152-.7082427-4.9665705-2.0105998c-5.21-5.14-9.51-13.45-11.81-22.8-2.3-9.35-2.32-18.71-.08-25.67.56851134-1.76793142 1.81624757-3.23749686 3.46856325-4.08522296 1.65231568-.84772609 3.57377528-1.00412718 5.34143675-.43477704.7868077.24923382 1.5219959.6388497 2.17 1.15 2.3089 1.81012763 3.2465527 4.8664763 2.35 7.66-1.45 4.5-1.32 11.24.35 18.04s4.67 12.85 8.04 16.16c2.090874 2.0606587 2.6738344 5.2070476 1.46 7.88z" fill="#ff9801"/><path id="Shape" d="m24.38 47.01c-3.37-3.31-6.37-9.36-8.04-16.16s-1.8-13.54-.35-18.04c.8965527-2.7935237-.0411-5.84987237-2.35-7.66-.6480041-.5111503-1.3831923-.90076618-2.17-1.15-1.1761127-.38012973-2.43242331-.43916494-3.639-.171.214.047.427.1.639.171.78680772.24923382 1.52199594.6388497 2.17 1.15 2.3089 1.81012763 3.2465527 4.8664763 2.35 7.66-1.45 4.5-1.32 11.24.35 18.04s4.67 12.85 8.04 16.16c2.090874 2.0606587 2.6738344 5.2070476 1.46 7.88-.3375288.7517586-.8084678 1.4361447-1.39 2.02-.9476791.9668101-2.1572681 1.6355599-3.48 1.924 2.3472133.5176842 4.7956177-.2092803 6.48-1.924.5815322-.5838553 1.0524712-1.2682414 1.39-2.02 1.2138344-2.6729524.630874-5.8193413-1.46-7.88z" fill="#f57c00"/><path id="Shape" d="m40.83 46.06c-.1843269.2735614-.3953622.5281437-.63.76-.8429179.8413145-1.9325385 1.3913802-3.11 1.57h-.02c-.1996408-1.5197656-.903972-2.928428-2-4-.36-.35-.72-.74-1.08-1.16v-.01c-2.93-3.46-5.48-8.93-6.97-14.99-1.67-6.8-1.8-13.55-.35-18.04.4732374-1.46331589.4486231-3.04214741-.07-4.49h.01c1.1295706-.38359455 2.3519343-.39760445 3.49-.04 1.3859115.42386797 2.5425738 1.38828468 3.2087137 2.67540254.66614 1.28711786.7855605 2.78835266.3312863 4.16459746-1.05 3.21-1.07 7.88-.07 12.71.05.26.11.52.17.79.04.18.08.37.13.55 1.3 5.29 3.66 9.99 6.3 12.56 1.8972769 1.8400528 2.1770087 4.7857129.66 6.95z" fill="#ff9801"/><path id="Shape" d="m40.83 46.06c-.1843269.2735614-.3953622.5281437-.63.76-.8429179.8413145-1.9325385 1.3913802-3.11 1.57h-.02c-.0574568-.4149998-.1545677-.8235354-.29-1.22.1468431-.1082011.2870928-.2250758.42-.35.2346378-.2318563.4456731-.4864386.63-.76 1.5170087-2.1642871 1.2372769-5.1099472-.66-6.95-2.64-2.57-5-7.27-6.3-12.56-.05-.18-.09-.37-.13-.55-.06-.27-.12-.53-.17-.79-1-4.83-.98-9.5.07-12.71.4542742-1.3762448.3348537-2.8774796-.3312863-4.16459746-.6661399-1.28711786-1.8228022-2.25153457-3.2087137-2.67540254-.06-.02-.12-.02-.18-.04 1.0412773-.29662895 2.1465133-.28272661 3.18.04 1.3859115.42386797 2.5425738 1.38828468 3.2087137 2.67540254.66614 1.28711786.7855605 2.78835266.3312863 4.16459746-1.05 3.21-1.07 7.88-.07 12.71.05.26.11.52.17.79.04.18.08.37.13.55 1.19 4.85 3.27 9.2 5.65 11.87.2038676.2417296.4208612.4720767.65.69.4736706.4577514.857003 1.0005229 1.13 1.6.8070408 1.7398195.628026 3.7775416-.47 5.35z" fill="#f57c00"/><path id="Shape" d="m35.14 54.29c-2.494828 2.5392318-6.4995698 2.7976023-9.3.6 1.2138344-2.6729524.630874-5.8193413-1.46-7.88-3.37-3.31-6.37-9.36-8.04-16.16s-1.8-13.54-.35-18.04c.8965527-2.7935237-.0411-5.84987237-2.35-7.66 1.550865-3.34880199 5.4352132-4.91834613 8.8771831-3.58699324s5.2590989 5.10622666 4.1528169 8.62699324c-1.45 4.49-1.32 11.24.35 18.04 1.49 6.06 4.04 11.53 6.97 14.99v.01c.36.42.72.81 1.08 1.16 1.096028 1.071572 1.8003592 2.4802344 2 4 .3219172 2.1608819-.3932436 4.3471249-1.93 5.9z" fill="#ff5722"/><path id="Shape" d="m37.07 48.39c-.1996408-1.5197656-.903972-2.928428-2-4-.36-.35-.72-.74-1.08-1.16v-.01c-2.93-3.46-5.48-8.93-6.97-14.99-1.67-6.8-1.8-13.55-.35-18.04.7713005-2.386001.2074088-5.00230992-1.4782649-6.85876061-1.6856738-1.85645069-4.2355998-2.66942274-6.6847351-2.13123939.2153333.048.4296667.10666667.643.176 3.6789141 1.18707996 5.7014739 5.12928172 4.52 8.81-1.45 4.49-1.32 11.24.35 18.04 1.49 6.06 4.04 11.53 6.97 14.99v.01c.36.42.72.81 1.08 1.16 1.096028 1.071572 1.8003592 2.4802344 2 4 .5525765 3.6206736-1.8093308 7.0456583-5.39 7.816 2.3398132.5224406 4.7834088-.2023163 6.46-1.916 1.5355396-1.5519746 2.2506021-3.736435 1.93-5.896z" fill="#d84315"/><path id="Shape" d="m53.8 59h-17.59c-1.7899941-.0397111-3.3348491-1.2657865-3.78-3 3.1741442-1.0924187 5.1225654-4.2879975 4.64-7.61h.02c1.1774615-.1786198 2.2670821-.7286855 3.11-1.57.2346378-.2318563.4456731-.4864386.63-.76h15.07c.056718 1.9835864.4314856 3.9452077 1.11 5.81l.49 1.45c.4781581 1.2526972.3280567 2.6585585-.4038043 3.7820641s-1.9571163 1.8290025-3.2961957 1.8979359z" fill="#a0522d"/><path id="Shape" d="m57.5 53.32-.49-1.45c-.6785144-1.8647923-1.053282-3.8264136-1.11-5.81h-3c.056718 1.9835864.4314856 3.9452077 1.11 5.81l.49 1.45c.4781581 1.2526972.3280567 2.6585585-.4038043 3.7820641s-1.9571163 1.8290025-3.2961957 1.8979359h3c1.3390794-.0689334 2.5643347-.7744303 3.2961957-1.8979359s.8819624-2.5293669.4038043-3.7820641z" fill="#783e22"/><path id="Shape" d="m57.18 37.95c-.8811112 2.61177-1.3138879 5.3538159-1.28 8.11h-15.07c1.5170087-2.1642871 1.2372769-5.1099472-.66-6.95-2.64-2.57-5-7.27-6.3-12.56-.05-.18-.09-.37-.13-.55h23.03c1.4953059 3.8200474 1.6399691 8.0364495.41 11.95z" fill="#f44335"/><path id="Shape" d="m56.77 26h-3c1.4953059 3.8200474 1.6399691 8.0364495.41 11.95-.8811112 2.61177-1.3138879 5.3538159-1.28 8.11h3c-.0338879-2.7561841.3988888-5.49823 1.28-8.11 1.2299691-3.9135505 1.0853059-8.1299526-.41-11.95z" fill="#c81e1e"/><path id="Shape" d="m56.77 26h-23.03c-.06-.27-.12-.53-.17-.79.7176482-1.6026194 1.7091538-3.0678818 2.93-4.33.544208-.5722951 1.0237629-1.2027589 1.43-1.88h14.15l.01-.01c.3996398.6821366.8760765 1.3162671 1.42 1.89 1.4128324 1.4756461 2.5206517 3.215534 3.26 5.12z" fill="#a0522d"/><path id="Shape" d="m53.51 20.88c-.5439235-.5737329-1.0203602-1.2078634-1.42-1.89l-.01.01h-2.98c.3978013.6784768.8718806 1.3092405 1.413 1.88 1.4117568 1.4759103 2.5185451 3.2157803 3.257 5.12h3c-.7393483-1.904466-1.8471676-3.6443539-3.26-5.12z" fill="#783e22"/><path id="Shape" d="m52.09 18.99-.01.01h-14.15c1.8101303-3.0397118 2.8662307-6.468609 3.08-10v-4h8v4c.2090827 3.5291008 1.2655748 6.9558397 3.08 9.99z" fill="#009688"/><path id="Shape" d="m49.01 9v-4h-3v4c.2090827 3.5291008 1.2655748 6.9558397 3.08 9.99l-.01.01h3l.01-.01c-1.8144252-3.0341603-2.8709173-6.4608992-3.08-9.99z" fill="#00695c"/><path id="Shape" d="m50.01 3v1c0 .55228475-.4477153 1-1 1h-8c-.5522847 0-1-.44771525-1-1v-1c.0032948-1.10320187.8967981-1.9967052 2-2h6c1.1045695 0 2 .8954305 2 2z" fill="#f44335"/><path id="Shape" d="m48.01 1h-3c1.1045695 0 2 .8954305 2 2v1c0 .55228475-.4477153 1-1 1h3c.5522847 0 1-.44771525 1-1v-1c0-1.1045695-.8954305-2-2-2z" fill="#c81e1e"/><path id="Shape" d="m51.01 36c0 3.3137085-2.6862915 6-6 6-1.3471166.0028318-2.6552428-.4520153-3.71-1.29-.272997-.5994771-.6563294-1.1422486-1.13-1.6-.2291388-.2179233-.4461324-.4482704-.65-.69-.338251-.7618388-.5120324-1.5864486-.51-2.42.0000001-3.3137084 2.6862916-5.9999998 6-5.9999998s5.9999999 2.6862914 6 5.9999998z" fill="#f5f5f5"/><path id="Shape" d="m45.01 30c-.5064496.0029108-1.0104803.0701149-1.5.2 2.6439213.6793128 4.4945139 3.0597667 4.5008677 5.7895553.0063538 2.7297885-1.8331373 5.1188314-4.4738677 5.8104447 2.2464.5667043 4.6181949-.2125997 6.0906995-2.0012296 1.4725046-1.78863 1.7817492-4.2659458.794131-6.3616741s-3.0950529-3.4341768-5.4118305-3.4370963z" fill="#cfd8dc"/><g fill="#000"><path id="Shape" d="m20.392 23.454c.3198474.5670172.3528473 1.2518567.089 1.847l-.994 2.217c-.7599412 1.6929682-.2710956 3.6858592 1.186 4.835l1.908 1.5c.5091253.4058538.7967777 1.0282357.776 1.679l-.093 3.016c-.0758177 2.0312099 1.3790358 3.7983393 3.387 4.114l.624.094c.8013495.1285034 1.4443721.7307682 1.625 1.522l.946 3.854c.1314438.5365446.6729554.8649438 1.2095.7335s.8649438-.6729554.7335-1.2095l-.945-3.856c-.3750431-1.5780187-1.668879-2.7714162-3.272-3.018-.1-.048-2.375-.026-2.309-2.168l.093-3.016c.0394814-1.2842779-.5299535-2.511751-1.536-3.311l-1.907-1.506c-.7297365-.5860824-.9756913-1.5887579-.6-2.446l.994-2.217c.5215601-1.1743194.4577948-2.5259958-.172-3.646l-1.479-2.63c-1.052-1.872.969-2.891 1.043-2.991 1.3062551-.9606916 1.8995266-2.617501 1.5-4.189l-.946-3.855c-.0852078-.34708352-.34911-.62234408-.6922971-.72209368-.343187-.0997496-.7135207-.00883392-.9715.2385-.2579792.24733392-.3644107.61351016-.2792029.96059368l.947 3.854c.204881.7852004-.0875349 1.6161519-.739 2.1l-.511.372c-1.6343432 1.208979-2.1068143 3.4489216-1.1 5.215z"/><circle id="Oval" cx="41" cy="54" r="1"/><circle id="Oval" cx="43" cy="50" r="1"/><circle id="Oval" cx="45" cy="54" r="1"/><path id="Shape" d="m59 58h-1.314c.019-.027.042-.05.062-.077 1.0130785-1.4322948 1.2736823-3.2650841.7-4.923l-.5-1.471c-.6429524-1.7651257-.9978176-3.6221746-1.051-5.5-.0293619-2.6436402.3878349-5.2732644 1.234-7.778 2.0319435-6.288642.5407947-13.1838701-3.908-18.071-2.333-2.39-4.213-8.071-4.213-11.18v-3.278c.6167513-.35441258.997855-1.01067322 1-1.722v-1c0-1.65685425-1.3431458-3-3-3h-6c-1.6568542 0-3 1.34314575-3 3v1c.00209.71108064.3832566 1.36706839 1 1.721v3.279c0 3.1-1.885 8.785-4.226 11.181-.6230817.641848-1.1898348 1.3360703-1.694 2.075-.504802-3.1475116-.3343644-6.3663963.5-9.443.5389155-1.6177931.401895-3.38463714-.38-4.9-.784868-1.54087641-2.1587525-2.69948302-3.81-3.213-1.0391431-.3239638-2.1424164-.38512314-3.211-.178-1.2667435-2.5921189-3.8325182-4.30001088-6.7126937-4.46826286s-5.6273601 1.22927145-7.1873063 3.65626286c-2.0939771-1.19486167-4.61514152-1.38167154-6.86235469-.50847758-2.24721316.87319396-3.98079894 2.71326138-4.71864531 5.00847758-2.3 7.138-2.274 16.694.063 26.219 2.02 8.229 6.535 18.384 12.42 23.571h-13.191c-.55228475 0-1 .4477153-1 1s.44771525 1 1 1h58c.5522847 0 1-.4477153 1-1s-.4477153-1-1-1zm-2.773-20.351c-.7882495 2.3950141-1.2284104 4.8908307-1.307 7.411h-12.472c.2752398-.7789935.3912001-1.6053378.341-2.43 2.7710185.930172 5.8282862.040637 7.6677199-2.2309807s2.0737432-5.4470323.5876554-7.9640357c-1.4860878-2.5170035-4.3796793-3.8456443-7.257215-3.3322715s-5.1331546 2.7606695-5.6571603 5.6362879c-1.3643546-2.4345351-2.4067396-5.0359597-3.101-7.739h21.03c1.1886561 3.4411928 1.2475142 7.1720243.168 10.649zm-16.217-1.649c0-2.7614237 2.2385763-5 5-5s5 2.2385763 5 5-2.2385763 5-5 5c-1.0508766.0009656-2.074224-.3359432-2.919-.961-.4523883-.808817-1.0279481-1.5422677-1.706-2.174-.2454349-.5912606-.3728274-1.2248261-.375-1.865zm1-33c0-.55228475.4477153-1 1-1h6c.5522847 0 1 .44771525 1 1v1h-8zm1 6v-3h6v3c.1681478 3.132613.9818284 6.1966822 2.39 9h-10.787c1.411222-2.8025535 2.2273278-5.8667804 2.397-9zm-4.795 12.579c.463739-.4872935.8821337-1.0158098 1.25-1.579h13.08c.3662755.5620127.7833581 1.0892238 1.246 1.575.9761756 1.0146236 1.7958299 2.1689477 2.432 3.425h-20.429c.6295685-1.2560748 1.4458338-2.4095005 2.421-3.421zm-7.415-14.968c1.1405078.35159247 2.0906889 1.14887918 2.635 2.211.5364496 1.04088183.6298438 2.2542849.259 3.365-1.213 3.678-1.137 9.137.2 14.6 1.084 4.414 3.36 9.912 6.58 13.038.3967676.3877286.7164138.8471776.942 1.354l.007.014c.2443673.5460554.3730669 1.1367797.378 1.735.0123583 1.1919662-.4567128 2.3385041-1.301 3.18-.4710897.4661537-1.0373445.8250091-1.66 1.052-.3765047-1.3202498-1.0894439-2.5200826-2.069-3.482-3.24-3.188-6.145-9.052-7.773-15.684s-1.766-13.176-.371-17.5c.4227812-1.30640604.4992747-2.70017309.222-4.045.6544238-.08661636 1.3198243-.03136526 1.951.162zm-7.953-4.28c3.1528584 1.01535674 4.8864884 4.39354057 3.873 7.547-1.5 4.664-1.381 11.614.332 18.592 1.529 6.235 4.175 11.857 7.213 15.438.011.011.019.024.03.035.352.413.708.8 1.07 1.161 2.1630646 2.1307679 2.3886136 5.5433574.5247984 7.9402749-1.8638152 2.3969174-5.226775 3.019124-7.8247984 1.4477251.9483914-2.8839766.1826245-6.0562734-1.977-8.19-3.241-3.195-6.147-9.059-7.773-15.687s-1.766-13.171-.372-17.5c.9264304-2.8924939.1350031-6.0601399-2.043-8.177 1.4276487-2.37877678 4.3068435-3.45925192 6.947-2.607zm4.353 53.988c1.6997718.9904241 3.7102399 1.3042585 5.631.879.1402235.2810078.305563.5487641.494.8h-7.576c.5636211-.4852474 1.0525538-1.0510076 1.451-1.679zm-10.945-.046c-5.084-5.01-9.292-13.146-11.543-22.321s-2.289-18.334-.1-25.129c1.01537551-3.15437435 4.39562565-4.88837551 7.55-3.873 3.1543743 1.01537551 4.8883755 4.39562565 3.873 7.55-1.5 4.669-1.378 11.62.333 18.592s4.819 13.191 8.312 16.635c1.5556746 1.4984887 2.1858348 3.7175091 1.6499223 5.8099693-.5359126 2.0924602-2.1551742 3.7353677-4.2396458 4.3015567-2.0844716.5661891-4.3123938-.0317374-5.8332765-1.565526zm20.955 1.727c-1.0280567-.0157786-1.9696079-.5788034-2.47-1.477 2.7703367-1.3888671 4.4859043-4.2562043 4.4-7.354 1.0440792-.3116659 1.9944873-.8775813 2.766-1.647.148-.148.287-.3.418-.462h13.64c.1297359 1.7518785.4981406 3.4778291 1.095 5.13l.492 1.456c.3655002 1.0478885.2031594 2.2077316-.436 3.115-.5230805.7662115-1.387321 1.2287575-2.315 1.239z"/></g></g></g></svg>